<svg xmlns="http://www.w3.org/2000/svg" width="24" height="24" viewBox="0 0 24 24" fill="currentColor"><path d="M2 17v2h20v-2H2zm1.15-4.05L4 11.47l.85 1.48 1.3-.75-.85-1.48H7v-1.5H5.3l.85-1.47L4.85 7 4 8.47 3.15 7l-1.3.75.85 1.47H1v1.5h1.7l-.85 1.48 1.3.75zm6.7 0l.85-1.48 1.3.75-.85-1.48H13v-1.5h-1.7l.85-1.47-1.3-.75L10 8.47 9.15 7l-1.3.75.85 1.47H7v1.5h1.7l-.85 1.48 1.3.75zm6.7 0l.85-1.48 1.3.75-.85-1.48H19v-1.5h-1.7l.85-1.47-1.3-.75L16 8.47 15.15 7l-1.3.75.85 1.47H13v1.5h1.7l-.85 1.48 1.3.75z"/></svg>
